<svg version="1" xmlns="http://www.w3.org/2000/svg" width="682.667" height="682.667" viewBox="0 0 512.000000 512.000000"><path d="M237.8 19.5c-.1.1-2.8.5-5.8.9-3 .3-6.8.8-8.5 1.1-4.4.8-9.9 1.8-11 2.1-.5.1-3.1.7-5.8 1.3-30.5 7.1-69.4 26.6-96.9 48.8-50.5 40.5-80.2 89-93.4 152-1.2 6.2-2.6 13.9-3 17-.3 3.2-.8 6.7-1 7.8-2.6 13.6-2.6 69.2.1 90 .2 1.6.7 5.9 1.1 9.5.3 3.6.8 6.8 1 7.1.2.3.6 3 .9 6 3.5 31.7 21.4 66 48.1 92.1 33 32.3 75.4 48.2 111 41.6 22.6-4.1 45.2-15.3 62.9-30.9 5.8-5.2 14.6-14.4 15.8-16.4.6-1.1 3.2.9 11 8.8 17.3 17.2 33.5 27.3 55.4 34.6 17.4 5.8 35.7 7 51.8 3.4 1.1-.2 3.1-.6 4.5-.9 20.3-4.1 45.3-17.8 65.4-35.7 19-17.1 34.4-39 43.9-62.7 2.9-7.4 4-10.7 6.4-20.5.5-2 2.7-14.7 3.7-21.9.4-2.1.9-6.6 1.2-10 .3-3.3.7-7.2 1-8.6.9-5.7 1.8-26.6 1.8-42.5 0-15.9-1.1-39.1-1.9-40.5-.2-.3-.6-3.2-.9-6.5-.3-3.3-.8-7.1-1.1-8.5-.2-1.4-.7-3.9-1-5.5-5.9-31.5-17.8-64.6-31.3-86.9-2.3-3.7-4.2-7-4.2-7.2 0-1-13.8-19.6-20.2-27.1-39.9-47.2-100.7-82.8-153.3-89.9-2.7-.3-5.9-.8-7-1.1-2.2-.6-40.1-1.3-40.7-.8z"/></svg>